<mxfile host="app.diagrams.net" modified="2023-10-17T12:30:02.597Z" agent="Mozilla/5.0 (Windows NT 10.0; Win64; x64) AppleWebKit/537.36 (KHTML, like Gecko) Chrome/118.0.0.0 Safari/537.36" version="22.0.4" etag="SfUi8K6n_uZw8HNmEoqe" type="github">
  <diagram name="Pagina-1" id="Z1lUPoEmYy8qcG4YO0sr">
    <mxGraphModel>
      <root>
        <mxCell id="0" />
        <mxCell id="1" parent="0" />
      </root>
    </mxGraphModel>
  </diagram>
</mxfile>
